**ABCDEFGHIJKLMNOPQRSTUVWXYZabcdefghijklmnopqrstuvwxyz**************************
**PARASOLID !"#$%&'()*+,-./:;<=>?@[\]^_`{|}~0123456789**************************
**PART1;
MC=AMD64;
MC_MODEL=AMD64 Family 23 Model 8 Stepping 2, AuthenticAMD;
MC_ID=unknown;
OS=Windows_NT;
OS_RELEASE=unknown;
FRU=Parasolid Version 27.0, build 207,  1-23-2015;
APPL=SOLIDWORKS 2015-2015313;
SITE=;
USER=unknown;
FORMAT=text;
GUISE=transmit;
KEY=ME-Core XY - Cama Quente;
FILE=ME-Core XY - Cama Quente.x_t;
DATE=Thu Feb 17 13:57:02 2022;
**PART2;
SCH=SCH_2700207_26105;
USFLD_SIZE=0;
**PART3;
**END_OF_HEADER*****************************************************************
T51 : TRANSMIT FILE created by modeller version 270020723 SCH_2700207_26105_1300
6196 0 12 30 CCCCCCCCCCCCCDI5 owner1040 0 CCCCCCCCCA13 boundary_mesh1006 0 A16 i
ndex_map_offset0 0 1 dA9 index_map82 0 A17 node_id_index_map82 0 A20 schema_embe
dding_map82 0 A5 child12 0 A14 lowest_node_id0 0 1 dZ1 1327 2 3 0 0 0 0 1e3 1e-8
 0 4 0 1 0 1 1 5 6 7 8 9 10 11 0 0 0 0 0 0 0 81 255 2 2 1097 12 1 0 0 0 0 13 0 7
0 11 CI9 list_type0 0 1 uI10 notransmit0 0 1 lCCCDCCDI12 finger_index0 0 1 dI12
 finger_block1012 0 CZ3 0 4 T1 0 0 3 20 1 14 14 13 255 5 94 0 1 0 15 0 0 16 0 50
 255 6 353 0 17 18 0 0 --.201 .003 .205 .707106781186548 0 -.707106781186548 0 -
1 0 30 255 7 260 0 10 19 0 0 +.201 .003 .205 0 1 0 29 255 8 758 0 11 20 0 -.127
 .003 -.202 19 8 CCCCCCCA5 owner12 0 Z9 28 0 1 16 0 21 V0 16 255 10 258 0 ?22 0
 23 7 0 0 1 18 255 11 756 0 24 0 25 8 ?1 17 255 24 0 26 27 28 11 29 30 0 31 +18
 25 635 0 32 11 33 20 ?1 17 32 0 34 35 36 25 37 38 0 39 +18 33 514 0 40 25 41 42
 ?1 29 20 637 0 25 42 8 -.133 .003 .202 29 42 516 0 33 43 20 .133 .003 -.202 29
 43 395 0 41 44 42 .127 .003 .202 18 41 393 0 45 33 46 43 ?1 29 44 222 0 46 47 4
3 .205 .003 -.201 18 46 220 0 48 41 49 44 ?1 29 47 219 0 49 50 44 .205 .003 .201
 18 49 217 0 51 46 52 47 ?1 29 50 216 0 52 53 47 .201 .003 .205 18 52 214 0 54 4
9 55 50 ?1 29 53 213 0 55 56 50 -.201 .003 .205 18 55 211 0 57 52 58 53 ?1 29 56
 200 0 58 59 53 -.201 .003 -.205 18 58 198 0 60 55 61 56 ?1 29 59 197 0 61 62 56
 .201 .003 -.205 18 61 195 0 63 58 64 59 ?1 29 62 174 0 64 65 59 .201 -.003 .205
 18 64 172 0 66 61 67 62 ?1 29 65 171 0 67 68 62 -.201 -.003 .205 18 67 169 0 69
 64 70 65 ?1 29 68 168 0 70 71 65 .205 -.003 -.201 18 70 166 0 72 67 73 68 ?1 29
 71 165 0 73 74 68 .205 -.003 .201 18 73 163 0 75 70 76 71 ?1 29 74 162 0 76 77
 71 -.201 -.003 -.205 18 76 160 0 78 73 79 74 ?1 29 77 159 0 79 80 74 .201 -.003
 -.205 18 79 157 0 81 76 82 77 ?1 29 80 146 0 82 83 77 -.205 .003 .201 18 82 144
 0 84 79 85 80 ?1 29 83 143 0 85 86 80 -.205 .003 -.201 18 85 141 0 87 82 88 83
 ?1 29 86 140 0 88 89 83 -.205 -.003 .201 18 88 138 0 90 85 91 86 ?1 29 89 137 0
 91 92 86 -.205 -.003 -.201 18 91 135 0 93 88 94 89 ?1 29 92 499 0 95 96 89 .133
 .003 .202 18 95 452 0 97 98 99 92 ?1 29 96 500 0 99 100 92 .133 .003 .205 18 99
 454 0 101 95 102 96 ?1 29 100 501 0 102 103 96 .127 .003 .205 18 102 456 0 104
 99 105 100 ?1 29 103 503 0 94 106 100 .133 0 .202 18 94 449 0 107 91 108 103 ?1
 29 106 504 0 108 109 103 .133 0 .205 18 108 451 0 110 94 111 106 ?1 29 109 505
 0 111 112 106 .127 0 .205 18 111 453 0 113 108 98 109 ?1 29 112 506 0 98 114 10
9 .127 0 .202 18 98 455 0 115 111 95 112 ?1 29 114 620 0 116 117 112 .127 .003 -
.202 18 116 573 0 118 119 120 114 ?1 29 117 621 0 120 121 114 .127 .003 -.205 18
 120 575 0 122 116 123 117 ?1 29 121 622 0 123 124 117 .133 .003 -.205 18 123 57
7 0 125 120 126 121 ?1 29 124 624 0 105 127 121 .127 0 -.202 18 105 570 0 128 10
2 129 124 ?1 29 127 625 0 129 130 124 .127 0 -.205 18 129 572 0 131 105 132 127
 ?1 29 130 626 0 132 133 127 .133 0 -.205 18 132 574 0 134 129 119 130 ?1 29 133
 627 0 119 135 130 .133 0 -.202 18 119 576 0 136 132 116 133 ?1 29 135 741 0 137
 138 133 -.127 .003 .202 18 137 694 0 36 139 140 135 ?1 29 138 742 0 140 141 135
 -.127 .003 .205 18 140 696 0 142 137 143 138 ?1 29 141 743 0 143 144 138 -.133
 .003 .205 18 143 698 0 145 140 146 141 ?1 29 144 745 0 126 147 141 -.127 0 .202
 18 126 691 0 148 123 149 144 ?1 29 147 746 0 149 150 144 -.127 0 .205 18 149 69
3 0 151 126 152 147 ?1 29 150 747 0 152 153 147 -.133 0 .205 18 152 695 0 154 14
9 139 150 ?1 29 153 748 0 139 155 150 -.133 0 .202 18 139 697 0 35 152 137 153 ?
1 29 155 862 0 156 157 153 -.133 .003 -.202 18 156 815 0 28 158 159 155 ?1 29 15
7 863 0 159 160 155 -.133 .003 -.205 18 159 817 0 161 156 162 157 ?1 29 160 864
 0 162 163 157 -.127 .003 -.205 18 162 819 0 164 159 0 160 ?1 29 163 866 0 146 1
65 160 -.133 0 -.202 18 146 812 0 166 143 167 163 ?1 29 165 867 0 167 168 163 -.
133 0 -.205 18 167 814 0 169 146 170 165 ?1 29 168 868 0 170 171 165 -.127 0 -.2
05 18 170 816 0 172 167 158 168 ?1 29 171 869 0 158 0 168 -.127 0 -.202 18 158 8
18 0 27 170 156 171 ?1 17 27 0 26 173 24 158 31 174 0 175 -15 255 26 823 0 24 17
6 0 17 173 0 26 28 27 146 177 178 0 179 -17 31 0 180 164 175 11 27 174 0 181 +16
 174 787 0 ?31 182 183 184 0 0 1 17 175 0 180 31 172 158 185 186 0 177 -15 180 8
35 0 164 187 0 17 172 0 180 175 164 170 188 182 0 185 -17 185 0 189 169 177 170
 175 186 0 190 +16 186 796 0 ?185 191 178 192 0 0 1 17 177 0 189 185 179 158 173
 178 0 0 +15 189 838 0 177 193 0 17 179 0 189 177 169 146 194 183 0 0 +16 178 78
4 0 ?177 186 195 196 0 0 1 16 195 809 0 ?197 178 198 199 0 0 1 31 255 196 861 0
 178 200 192 0 +-.13 0 -.202 0 1 0 0 0 1 .003 31 200 960 0 201 202 196 0 +-.13 0
 .202 0 1 0 0 0 1 .00165 30 192 860 0 186 196 203 0 +-.127 0 -.205 0 0 -1 30 203
 859 0 191 192 204 0 +-.133 0 -.205 -1 0 0 16 191 792 0 ?169 183 186 203 0 0 1 3
0 204 858 0 183 203 205 0 +-.133 0 -.202 0 0 1 16 183 788 0 ?179 174 191 204 0 0
 1 31 205 857 0 30 204 206 0 +-.13 .003 -.202 0 1 0 0 0 1 .003 16 30 800 0 ?24 1
98 207 205 0 0 1 30 206 856 0 198 205 199 0 +-.127 .003 -.205 0 0 -1 16 198 803
 0 ?164 195 30 206 0 0 1 30 199 854 0 195 206 208 0 +-.133 .003 -.202 0 0 1 30 2
08 853 0 209 199 210 0 +-.133 0 -.202 0 1 0 16 209 791 0 ?28 38 211 208 0 0 1 30
 210 852 0 211 208 212 0 +-.133 0 -.205 0 1 0 16 211 795 0 ?161 209 182 210 0 0
 1 30 212 851 0 182 210 184 0 +-.127 0 -.205 0 1 0 16 182 799 0 ?188 211 174 212
 0 0 1 30 184 850 0 174 212 213 0 +-.127 0 -.202 0 1 0 31 213 740 0 214 184 215
 0 +-.13 0 .202 0 1 0 0 0 1 .003 16 214 663 0 ?216 217 218 213 0 0 1 30 215 739
 0 217 213 219 0 +-.133 0 .202 -2775557561562915e-29 0 1 16 217 675 0 ?220 221 2
14 215 0 0 1 30 219 738 0 221 215 222 0 +-.133 0 .205 1 0 0 16 221 671 0 ?151 22
3 217 219 0 0 1 30 222 737 0 223 219 224 0 +-.127 0 .205 0 0 -1 16 223 667 0 ?22
5 226 221 222 0 0 1 31 224 736 0 38 222 227 0 +-.13 .003 .202 0 1 0 0 0 1 .003 1
6 38 679 0 ?32 228 209 224 0 0 1 30 227 735 0 228 224 229 0 +-.133 .003 .202 -27
75557561562915e-29 0 1 16 228 682 0 ?145 218 38 227 0 0 1 30 229 733 0 218 227 2
30 0 +-.127 .003 .205 0 0 -1 16 218 688 0 ?231 214 228 229 0 0 1 30 230 732 0 23
2 229 233 0 +-.127 0 .202 0 1 0 16 232 670 0 ?36 234 235 230 0 0 1 30 233 731 0
 235 230 236 0 +-.127 0 .205 0 1 0 16 235 674 0 ?142 232 237 233 0 0 1 30 236 73
0 0 237 233 238 0 +-.133 0 .205 0 1 0 16 237 678 0 ?239 235 226 236 0 0 1 30 238
 729 0 226 236 240 0 +-.133 0 .202 0 1 0 16 226 666 0 ?39 237 223 238 0 0 1 31 2
40 619 0 241 238 242 0 +.13 0 -.202 0 1 0 0 0 1 .003 16 241 542 0 ?243 244 245 2
40 0 0 1 30 242 618 0 244 240 246 0 +.133 0 -.205 0 0 -1 16 244 554 0 ?247 248 2
41 242 0 0 1 30 246 617 0 248 242 249 0 +.127 0 -.205 -1 0 0 16 248 550 0 ?131 2
50 244 246 0 0 1 30 249 616 0 250 246 251 0 +.127 0 -.202 0 0 1 16 250 546 0 ?25
2 253 248 249 0 0 1 31 251 615 0 234 249 254 0 +.13 .003 -.202 0 1 0 0 0 1 .003
 16 234 558 0 ?40 255 232 251 0 0 1 30 254 614 0 255 251 256 0 +.133 .003 -.205
 0 0 -1 16 255 561 0 ?125 245 234 254 0 0 1 30 256 612 0 245 254 257 0 +.127 .00
3 -.202 0 0 1 16 245 567 0 ?258 241 255 256 0 0 1 30 257 611 0 259 256 260 0 +.1
27 0 -.202 0 1 0 16 259 549 0 ?118 261 262 257 0 0 1 30 260 610 0 262 257 263 0
 +.127 0 -.205 0 1 0 16 262 553 0 ?122 259 264 260 0 0 1 30 263 609 0 264 260 26
5 0 +.133 0 -.205 0 1 0 16 264 557 0 ?266 262 253 263 0 0 1 30 265 608 0 253 263
 267 0 +.133 0 -.202 0 1 0 16 253 545 0 ?268 264 250 265 0 0 1 31 267 498 0 269
 265 270 0 +.13 0 .202 0 1 0 0 0 1 .003 16 269 421 0 ?271 272 273 267 0 0 1 30 2
70 497 0 272 267 274 0 +.127 0 .202 -925185853854305e-29 0 1 16 272 433 0 ?275 2
76 269 270 0 0 1 30 274 496 0 276 270 277 0 +.127 0 .205 1 0 0 16 276 429 0 ?110
 278 272 274 0 0 1 30 277 495 0 278 274 279 0 +.133 0 .205 -925185853854305e-29
 0 -1 16 278 425 0 ?280 281 276 277 0 0 1 31 279 494 0 261 277 282 0 +.13 .003 .
202 0 1 0 0 0 1 .003 16 261 437 0 ?45 283 259 279 0 0 1 30 282 493 0 283 279 284
 0 +.127 .003 .202 -925185853854305e-29 0 1 16 283 440 0 ?285 273 261 282 0 0 1
 30 284 491 0 273 282 286 0 +.133 .003 .205 -925185853854305e-29 0 -1 16 273 446
 0 ?287 269 283 284 0 0 1 30 286 490 0 288 284 289 0 +.133 0 .202 0 1 0 16 288 4
28 0 ?97 290 291 286 0 0 1 30 289 489 0 291 286 292 0 +.133 0 .205 0 1 0 16 291
 432 0 ?101 288 293 289 0 0 1 30 292 488 0 293 289 294 0 +.127 0 .205 0 1 0 16 2
93 436 0 ?295 291 281 292 0 0 1 30 294 487 0 281 292 296 0 +.127 0 .202 0 1 0 16
 281 424 0 ?297 293 278 294 0 0 1 30 296 5 0 298 294 299 0 +-.205 .003 .205 0 0
 1 16 298 142 0 ?300 301 302 296 0 0 1 30 299 8 0 303 296 304 0 +.205 .003 .205
 1 0 0 16 303 212 0 ?305 306 307 299 307 301 1 30 304 11 0 306 299 308 0 +.205 .
003 .205 0 0 -1 16 306 218 0 ?309 310 303 304 0 0 1 30 308 14 0 311 304 312 0 +.
205 .003 -.205 -1 0 0 16 311 196 0 ?313 314 315 308 310 315 1 30 312 69 0 290 30
8 316 0 +-.205 -.003 .205 0 0 1 16 290 136 0 ?317 318 288 312 0 0 1 30 316 68 0
 318 312 319 0 +.205 -.003 .205 1 0 0 16 318 170 0 ?320 321 290 316 0 0 1 30 319
 67 0 321 316 322 0 +.205 -.003 .205 0 0 -1 16 321 164 0 ?323 302 318 319 0 0 1
 30 322 66 0 302 319 324 0 +.205 -.003 -.205 -1 0 0 16 302 158 0 ?325 298 321 32
2 0 0 1 30 324 149 0 314 322 326 0 +-.205 .003 .201 0 1 0 16 314 147 0 ?84 327 3
11 324 0 0 1 30 326 154 0 327 324 328 0 +-.205 .003 -.201 0 -1 0 16 327 152 0 ?3
29 330 314 326 0 0 1 30 328 177 0 330 326 331 0 --.201 -.003 .205 .7071067811865
48 0 .707106781186548 16 330 175 0 ?90 332 327 328 0 0 1 30 331 182 0 332 328 33
3 0 -.205 -.003 .201 .707106781186548 0 -.707106781186548 16 332 180 0 ?66 334 3
30 331 0 0 1 30 333 187 0 334 331 335 0 -.201 -.003 -.205 -.707106781186548 0 -.
707106781186548 16 334 185 0 ?72 336 332 333 0 0 1 30 335 192 0 336 333 337 0 --
.205 -.003 -.201 -.707106781186548 0 .707106781186548 16 336 190 0 ?78 338 334 3
35 0 0 1 30 337 203 0 338 335 339 0 +.201 .003 -.205 0 -1 0 16 338 201 0 ?340 34
1 336 337 0 0 1 30 339 208 0 341 337 342 0 +-.201 .003 -.205 0 1 0 16 341 206 0
 ?343 344 338 339 0 0 1 30 342 225 0 344 339 345 0 --.203 .003 .203 -.7071067811
86548 0 -.707106781186548 16 344 223 0 ?57 346 341 342 0 0 1 30 345 230 0 346 34
2 347 0 -.203 .003 .203 -.707106781186548 0 .707106781186548 16 346 228 0 ?51 34
8 344 345 0 0 1 30 347 235 0 348 345 349 0 -.203 .003 -.203 .707106781186548 0 .
707106781186548 16 348 233 0 ?63 350 346 347 0 0 1 30 349 240 0 350 347 351 0 --
.203 .003 -.203 .707106781186548 0 -.707106781186548 16 350 238 0 ?87 352 348 34
9 0 0 1 30 351 245 0 352 349 353 0 +.205 .003 .201 0 -1 0 16 352 243 0 ?354 355
 350 351 0 0 1 30 353 250 0 355 351 19 0 +.205 .003 -.201 0 1 0 16 355 248 0 ?48
 23 352 353 0 0 1 30 19 255 0 23 353 7 0 +-.201 .003 .205 0 -1 0 16 23 253 0 ?35
6 10 355 19 0 0 1 17 356 0 357 320 358 67 359 23 0 360 +15 357 649 0 361 362 0 1
7 320 0 357 22 356 64 360 318 0 363 +17 358 0 357 356 239 55 305 303 0 359 -17 3
59 0 364 365 69 55 356 23 0 0 -17 360 0 366 90 66 67 320 318 0 0 -15 366 44 0 36
7 368 0 17 90 0 366 367 360 88 69 330 0 317 +17 66 0 366 360 369 64 75 332 0 320
 +17 369 0 366 66 72 73 323 321 0 0 -17 75 0 370 371 363 73 66 332 0 354 -15 370
 321 0 372 373 0 17 371 0 370 372 75 49 354 352 0 0 -17 363 0 370 75 372 64 22 1
0 0 0 -17 354 0 374 323 375 73 371 352 0 369 +15 374 80 0 323 376 0 17 323 0 374
 48 354 70 369 321 0 377 +17 375 0 374 354 48 49 309 306 0 371 -17 48 0 374 375
 323 46 377 355 0 309 +17 309 0 378 63 51 46 375 306 0 379 +15 378 765 0 380 381
 0 17 63 0 378 313 309 61 379 348 0 382 +17 51 0 378 309 54 49 372 346 0 375 +17
 379 0 383 377 384 46 63 348 0 0 -15 383 300 0 379 385 0 17 377 0 383 81 379 70
 48 355 0 0 -17 384 0 383 379 81 61 340 338 0 0 -17 81 0 383 384 377 79 72 334 0
 340 -17 340 0 386 325 382 79 384 338 0 387 +15 386 770 0 388 389 0 17 325 0 386
 343 340 76 387 302 0 390 +17 382 0 386 340 266 61 313 311 0 384 -17 387 0 366 7
2 78 79 325 302 0 0 -17 72 0 366 369 387 70 81 334 0 323 +17 78 0 366 387 367 76
 93 336 0 325 +17 367 0 366 78 90 91 317 290 0 0 -17 93 0 391 392 390 91 78 336
 0 329 -15 391 279 0 393 394 0 17 392 0 391 393 93 85 329 327 0 0 -17 390 0 391
 93 393 76 343 341 0 0 -17 329 0 395 317 396 91 392 327 0 367 +15 395 84 0 396 1
5 0 17 317 0 395 84 329 88 367 290 0 397 +17 396 0 395 329 84 85 300 298 0 392 -
17 84 0 395 396 317 82 397 314 0 300 +17 300 0 378 57 87 82 396 298 0 365 +17 57
 0 378 305 300 55 365 344 0 358 +17 87 0 378 300 60 85 393 350 0 396 +17 365 0 3
64 397 359 82 57 344 0 0 -15 364 342 0 365 17 0 17 397 0 364 69 365 88 84 314 0
 0 -17 69 0 364 359 397 67 90 330 0 356 -14 255 17 341 398 ?399 373 364 5 6 +0 0
 399 373 21 81 1 398 1298 400 17 401 0 0 402 403 14 399 457 402 ?404 17 405 5 40
6 -0 0 404 17 21 14 373 320 407 ?17 385 370 5 18 +0 0 17 385 21 13 21 29 0 0 0 0
 0 0 9 15 14 15 85 408 ?362 0 395 5 409 -0 0 362 0 21 81 1 408 1301 400 15 410 0
 407 411 412 14 362 83 411 ?376 15 357 5 413 -0 0 376 15 21 50 409 93 0 15 413 4
14 0 +-.205 .003 .205 1 0 0 0 0 -1 50 413 92 0 362 415 409 0 +.205 .003 .205 0 0
 -1 -1 0 0 50 414 290 0 394 409 416 0 --.205 .003 -.201 .707106781186548 0 .7071
06781186548 0 -1 0 14 394 278 417 ?385 368 391 5 414 +0 0 385 368 21 50 416 311
 0 385 414 18 0 -.201 .003 -.205 -.707106781186548 0 .707106781186548 0 -1 0 14
 385 299 418 ?373 394 383 5 416 +0 0 373 394 21 50 18 332 0 373 416 6 0 -.205 .0
03 .201 -.707106781186548 0 -.707106781186548 0 -1 0 81 1 418 1304 400 385 419 0
 417 420 421 80 255 1 400 422 423 9000 1 1 1 1 1 1 1 1 0 FFFFTFTFFFFFFF1 81 1 41
9 1213 424 385 0 418 425 426 427 81 1 417 1303 400 394 425 0 411 418 428 81 1 42
0 1305 400 389 429 0 418 430 431 82 255 1 421 -1612578639 14 389 79 420 ?381 376
 386 5 432 -0 0 381 376 21 81 1 429 1209 424 389 0 420 433 434 435 81 1 430 1306
 400 381 434 0 420 436 437 82 1 431 -1625620300 14 381 1 430 ?368 389 378 5 438
 +0 0 368 389 21 81 1 434 1210 424 381 0 430 429 439 440 81 1 436 1307 400 404 4
41 0 430 442 443 82 1 437 -1632173900 14 404 461 436 ?444 399 445 5 446 -0 0 444
 399 21 81 1 441 1217 424 404 0 436 447 448 449 81 1 442 1308 400 444 448 0 436
 450 451 82 1 443 -1441612 14 444 469 442 ?452 404 453 5 454 -0 0 452 404 21 81
 1 448 1218 424 444 0 442 441 455 456 81 1 450 1309 400 457 458 0 442 459 460 82
 1 451 -1179468 14 457 578 450 ?461 452 462 5 463 -0 0 461 452 21 81 1 458 1220
 424 457 0 450 455 464 465 81 1 459 1310 400 461 464 0 450 466 467 82 1 460 1015
8260 14 461 582 459 ?468 457 469 5 470 -0 0 468 457 21 81 1 464 1221 424 461 0 4
59 458 471 472 81 1 466 1311 400 468 471 0 459 473 474 82 1 467 9765044 14 468 5
90 466 ?475 461 476 5 477 -0 0 475 461 21 81 1 471 1222 424 468 0 466 464 478 47
9 81 1 473 1312 400 480 481 0 466 482 483 82 1 474 10027188 14 480 699 473 ?484
 475 34 5 485 -0 0 484 475 21 81 1 481 1224 424 480 0 473 478 486 487 81 1 482 1
313 400 484 486 0 473 488 489 82 1 483 21299380 14 484 703 482 ?490 480 491 5 49
2 -0 0 490 480 21 81 1 486 1225 424 484 0 482 481 493 494 81 1 488 1314 400 490
 493 0 482 495 496 82 1 489 20906164 14 490 711 488 ?497 484 498 5 499 -0 0 497
 484 21 81 1 493 1226 424 490 0 488 486 500 501 81 1 495 1315 400 176 502 0 488
 503 504 82 1 496 21168308 14 176 820 495 ?505 497 26 5 506 -0 0 505 497 21 81 1
 502 1228 424 176 0 495 500 507 508 81 1 503 1316 400 505 507 0 495 509 510 82 1
 504 32440500 14 505 824 503 ?187 176 511 5 512 -0 0 187 176 21 81 1 507 1229 42
4 505 0 503 502 513 514 81 1 509 1317 400 187 513 0 503 515 516 82 1 510 3204728
4 14 187 832 509 ?193 505 180 5 517 -0 0 193 505 21 81 1 513 1230 424 187 0 509
 507 518 519 81 1 515 1318 400 368 439 0 509 520 521 82 1 516 32309428 14 368 43
 515 ?394 381 522 5 523 -0 0 394 381 21 81 1 439 1211 424 368 0 515 434 425 524
 81 1 520 1319 400 452 455 0 515 525 526 82 1 521 -1626537800 14 452 473 520 ?45
7 444 527 5 528 +0 0 457 444 21 81 1 455 1219 424 452 0 520 448 458 529 81 1 525
 1320 400 475 478 0 520 530 531 82 1 526 -7995208 14 475 594 525 ?480 468 532 5
 533 +0 0 480 468 21 81 1 478 1223 424 475 0 525 471 481 534 81 1 530 1321 400 4
97 500 0 525 535 536 82 1 531 3211448 14 497 715 530 ?176 490 537 5 538 +0 0 176
 490 21 81 1 500 1227 424 497 0 530 493 502 539 81 1 535 1322 400 193 518 0 530
 540 541 82 1 536 14352568 14 193 836 535 ?542 187 543 5 544 +0 0 542 187 21 81
 1 518 1231 424 193 0 535 513 545 546 81 1 540 1323 400 542 545 0 535 547 548 82
 1 541 25493688 14 542 944 540 ?549 193 550 5 551 -0 0 549 193 21 81 1 545 1232
 424 542 0 540 518 552 553 81 1 547 1324 400 549 552 0 540 554 555 82 1 548 6822
29944 14 549 982 547 ?556 542 557 5 558 -0 0 556 542 21 81 1 552 1233 424 549 0
 547 545 559 560 81 1 554 1325 400 556 559 0 547 561 562 82 1 555 686227640 14 5
56 1020 554 ?563 549 564 5 565 -0 0 563 549 21 81 1 559 1234 424 556 0 554 552 5
66 567 81 1 561 1326 400 563 566 0 554 568 569 82 1 562 690159800 14 563 1058 56
1 ?0 556 570 5 571 -0 0 0 556 21 81 1 566 1235 424 563 0 561 559 0 572 81 1 568
 1327 400 376 433 0 561 0 573 82 1 569 694091960 14 376 81 568 ?389 362 374 5 41
5 -0 0 389 362 21 81 1 433 1208 424 376 0 568 574 429 575 82 1 573 -1625358159 8
0 1 424 0 576 8001 0 0 0 0 3 5 0 0 0 FFFFTFTFFFFFFF2 81 1 574 1207 424 362 0 411
 410 433 577 83 255 3 575 .792156862745098 .819607843137255 .933333333333333 81
 1 411 1302 400 362 574 0 408 417 578 81 1 410 1206 424 15 0 408 0 574 579 83 3
 577 .792156862745098 .819607843137255 .933333333333333 83 3 579 .79215686274509
8 .819607843137255 .933333333333333 82 1 578 -1625096012 79 255 15 576 SDL/TYSA_
COLOUR50 415 91 0 376 432 413 0 +.205 .003 .205 -1 0 0 0 0 1 50 432 90 0 389 523
 415 0 +.205 .003 -.205 0 0 1 1 0 0 50 523 65 0 368 438 432 0 +0 -.003 0 0 1 0 0
 0 1 50 438 2 0 381 406 523 0 +0 .003 0 0 1 0 0 0 1 51 255 406 481 0 399 454 438
 0 +.13 0 .202 0 1 0 .003 0 0 1 50 454 482 0 444 446 406 0 +.127 0 .202 -1 0 -92
5185853854305e-29 -925185853854305e-29 0 1 50 446 484 0 404 528 454 0 +.133 0 .2
05 1 0 -925185853854305e-29 -925185853854305e-29 0 -1 50 528 486 0 452 463 446 0
 +.13 0 .202 0 1 0 0 0 1 51 463 602 0 457 477 528 0 +.13 0 -.202 0 1 0 .003 0 0
 1 50 477 603 0 468 470 463 0 +.133 0 -.205 1 0 0 0 0 -1 50 470 605 0 461 533 47
7 0 +.127 0 -.202 -1 0 0 0 0 1 50 533 607 0 475 485 470 0 +.13 0 -.202 0 1 0 0 0
 1 51 485 723 0 480 499 533 0 +-.13 0 .202 0 1 0 .003 0 0 1 50 499 724 0 490 492
 485 0 +-.133 0 .202 -1 0 -2775557561562915e-29 -2775557561562915e-29 0 1 50 492
 726 0 484 538 499 0 +-.127 0 .205 1 0 0 0 0 -1 50 538 728 0 497 506 492 0 +-.13
 0 .202 0 1 0 0 0 1 51 506 844 0 176 517 538 0 +-.13 0 -.202 0 1 0 .003 0 0 1 50
 517 845 0 187 512 506 0 +-.127 0 -.205 1 0 0 0 0 -1 50 512 847 0 505 544 517 0
 +-.133 0 -.202 -1 0 0 0 0 1 50 544 849 0 193 551 512 0 +-.13 0 -.202 0 1 0 0 0
 1 51 551 957 0 542 558 544 0 +-.13 -.003 .202 0 1 0 .00165 0 0 1 51 558 995 0 5
49 565 551 0 +.13 -.003 .202 0 1 0 .00165 0 0 1 51 565 1033 0 556 571 558 0 +.13
 -.003 -.202 0 1 0 .00165 0 0 1 51 571 1071 0 563 0 565 0 +-.13 -.003 -.202 0 1
 0 .00165 0 0 1 83 3 572 .792156862745098 .819607843137255 .933333333333333 15 5
70 1061 0 580 563 581 17 580 0 570 580 580 0 582 583 0 0 -15 581 1062 0 584 563
 0 17 584 0 581 584 584 0 585 586 0 0 +17 585 0 543 585 585 0 584 586 0 0 -16 58
6 1055 0 ?584 583 0 587 0 0 1 16 583 1052 0 ?582 588 586 589 0 0 1 31 587 1074 0
 586 589 590 0 +-.13 0 -.202 0 1 0 0 0 1 .00165 31 589 1075 0 583 0 587 0 +-.13
 -.003 -.202 0 1 0 0 0 1 .00165 31 590 1037 0 591 587 592 0 +.13 -.003 -.202 0 1
 0 0 0 1 .00165 16 591 1014 0 ?593 594 588 590 0 0 1 31 592 1036 0 588 590 595 0
 +.13 0 -.202 0 1 0 0 0 1 .00165 16 588 1017 0 ?596 591 583 592 0 0 1 31 595 999
 0 597 592 598 0 +.13 -.003 .202 0 1 0 0 0 1 .00165 16 597 976 0 ?599 201 594 59
5 0 0 1 31 598 998 0 594 595 202 0 +.13 0 .202 0 1 0 0 0 1 .00165 16 594 979 0 ?
600 597 591 598 0 0 1 31 202 961 0 207 598 200 0 +-.13 -.003 .202 0 1 0 0 0 1 .0
0165 16 207 938 0 ?601 30 201 202 0 0 1 17 601 0 602 601 601 0 603 207 0 0 +16 2
01 941 0 ?604 207 597 200 0 0 1 17 604 0 605 604 604 0 606 201 0 0 +15 605 948 0
 604 542 0 17 606 0 537 606 606 0 604 201 0 0 -15 537 927 0 606 497 607 15 607 7
17 0 216 497 0 17 216 0 607 220 225 139 608 214 0 0 +17 220 0 607 151 216 152 60
9 217 0 610 +17 225 0 607 216 151 126 611 223 0 0 +17 608 0 34 36 35 126 216 214
 0 225 -15 34 702 0 32 480 0 17 36 0 34 32 608 137 148 232 0 231 +17 35 0 34 608
 32 139 39 226 0 609 -17 39 0 498 145 609 25 35 226 0 612 +17 609 0 498 39 154 1
39 220 217 0 216 -15 498 714 0 145 490 0 17 154 0 498 609 145 152 239 237 0 220
 -17 145 0 498 154 39 143 612 228 0 239 +17 239 0 357 358 610 143 154 237 0 305
 +17 610 0 357 239 613 152 151 221 0 0 -17 305 0 378 612 57 143 358 303 0 0 +17
 612 0 378 37 305 25 145 228 0 0 -17 37 0 378 614 612 137 32 38 0 0 -17 614 0 37
8 104 37 140 231 218 0 361 -17 104 0 378 615 614 102 361 307 0 285 +17 231 0 491
 148 142 137 614 218 0 37 +17 361 0 357 613 295 140 104 307 0 0 -17 613 0 357 61
0 361 149 142 235 0 0 -17 295 0 357 361 616 102 113 293 0 0 +16 307 633 0 ?104 3
03 301 299 301 303 1 16 301 391 0 ?54 307 298 299 303 307 1 17 54 0 378 51 617 5
2 618 301 0 22 +17 617 0 378 54 619 99 287 273 0 618 -17 618 0 357 620 22 99 54
 301 0 0 -17 22 0 357 618 320 52 363 10 0 372 +17 372 0 370 363 371 52 51 346 0
 0 -17 620 0 357 616 618 108 101 291 0 0 -17 616 0 357 295 620 111 110 276 0 0 -
17 101 0 445 287 621 99 620 291 0 617 +15 445 464 0 287 404 0 17 287 0 445 107 1
01 95 617 273 0 619 +17 621 0 445 101 107 108 280 278 0 620 -17 107 0 445 621 28
7 94 97 288 0 622 -17 280 0 623 271 110 94 621 278 0 0 +15 623 475 0 271 452 0 1
7 271 0 623 275 280 98 622 269 0 0 +17 110 0 623 280 275 108 616 276 0 621 +17 2
75 0 623 110 271 111 624 272 0 616 +17 624 0 453 297 113 98 275 272 0 271 -15 45
3 472 0 285 444 0 17 297 0 453 285 624 41 115 281 0 615 +17 113 0 453 624 285 11
1 295 293 0 275 -17 285 0 453 113 297 102 615 283 0 295 +17 615 0 378 619 104 41
 285 283 0 0 -17 619 0 378 617 615 95 45 261 0 0 -17 45 0 405 115 97 41 619 261
 0 297 +15 405 460 0 45 399 0 17 115 0 405 622 45 98 297 281 0 624 -17 97 0 405
 45 622 95 107 288 0 287 +17 622 0 405 97 115 94 271 269 0 280 -17 142 0 491 231
 611 140 613 235 0 614 +15 491 706 0 231 484 0 17 611 0 491 142 148 149 225 223
 0 613 -17 148 0 491 611 231 126 36 232 0 608 -17 151 0 607 225 220 149 610 221
 0 611 +15 602 932 0 601 368 366 17 603 0 550 603 603 0 601 207 0 0 -15 550 947
 0 603 542 605 17 600 0 625 600 600 0 626 594 0 0 +15 625 986 0 600 549 0 17 626
 0 527 626 626 0 600 594 0 0 -15 527 965 0 626 452 623 17 599 0 627 599 599 0 62
8 597 0 0 +15 627 970 0 599 368 602 17 628 0 557 628 628 0 599 597 0 0 -15 557 9
85 0 628 549 625 17 596 0 629 596 596 0 630 588 0 0 +15 629 1024 0 596 556 0 17
 630 0 532 630 630 0 596 588 0 0 -15 532 1003 0 630 475 631 15 631 596 0 243 475
 0 17 243 0 631 247 252 119 632 241 0 0 +17 247 0 631 131 243 132 633 244 0 634
 +17 252 0 631 243 131 105 635 250 0 0 +17 632 0 462 118 136 105 243 241 0 252 -
15 462 581 0 40 457 0 17 118 0 462 40 632 116 128 259 0 258 +17 136 0 462 632 40
 119 268 253 0 633 -17 40 0 462 136 118 33 636 234 0 268 +17 268 0 476 125 633 3
3 136 253 0 637 +17 633 0 476 268 134 119 247 244 0 243 -15 476 593 0 125 468 0
 17 134 0 476 633 125 132 266 264 0 247 -17 125 0 476 134 268 123 637 255 0 266
 +17 266 0 386 382 634 123 134 264 0 313 +17 634 0 386 266 638 132 131 248 0 0 -
17 313 0 378 637 63 123 382 311 0 0 +17 637 0 378 636 313 33 125 255 0 0 -17 636
 0 378 639 637 116 40 234 0 0 -17 639 0 378 640 636 120 258 245 0 641 -17 640 0
 378 181 639 162 641 315 0 0 +17 258 0 469 128 122 116 639 245 0 636 +17 641 0 3
86 638 188 120 640 315 0 0 -17 638 0 386 634 641 129 122 262 0 0 -17 188 0 386 6
41 190 162 172 182 0 640 +16 315 512 0 ?640 311 310 308 311 310 1 16 310 754 0 ?
60 315 306 308 315 311 1 17 60 0 378 87 380 58 388 310 0 343 +17 380 0 378 60 29
 159 197 195 0 388 -17 388 0 386 642 343 159 60 310 0 0 -17 343 0 386 388 325 58
 390 341 0 393 +17 393 0 391 390 392 58 87 350 0 0 -17 642 0 386 190 388 167 161
 211 0 0 -17 190 0 386 188 642 170 169 191 0 0 -17 161 0 511 197 194 159 642 211
 0 380 +15 511 827 0 197 505 0 17 197 0 511 166 161 156 380 195 0 29 +17 194 0 5
11 161 166 167 179 183 0 642 -17 166 0 511 194 197 146 28 209 0 173 -17 28 0 26
 24 173 156 166 209 0 197 +17 29 0 378 380 181 156 24 30 0 0 -17 181 0 378 29 64
0 11 164 198 0 0 -17 164 0 180 172 31 162 181 198 0 188 +17 169 0 189 179 185 16
7 190 191 0 194 +17 122 0 469 258 635 120 638 262 0 639 +15 469 585 0 258 461 0
 17 635 0 469 122 128 129 252 250 0 638 -17 128 0 469 635 258 105 118 259 0 632
 -17 131 0 631 252 247 129 634 248 0 635 +17 593 0 643 593 593 0 644 591 0 0 +15
 643 1008 0 593 368 627 17 644 0 564 644 644 0 593 591 0 0 -15 564 1023 0 644 55
6 629 17 582 0 522 582 582 0 580 583 0 0 +15 522 1046 0 582 368 643 15 543 1041
 0 585 193 189 83 3 567 .792156862745098 .819607843137255 .933333333333333 83 3
 560 .792156862745098 .819607843137255 .933333333333333 83 3 553 .79215686274509
8 .819607843137255 .933333333333333 83 3 546 .792156862745098 .819607843137255 .
933333333333333 83 3 539 .792156862745098 .819607843137255 .933333333333333 83 3
 534 .792156862745098 .819607843137255 .933333333333333 83 3 529 .79215686274509
8 .819607843137255 .933333333333333 81 1 425 1212 424 394 0 417 439 419 645 83 3
 524 .792156862745098 .819607843137255 .933333333333333 83 3 645 .79215686274509
8 .819607843137255 .933333333333333 83 3 519 .792156862745098 .819607843137255 .
933333333333333 83 3 514 .792156862745098 .819607843137255 .933333333333333 83 3
 508 .792156862745098 .819607843137255 .933333333333333 83 3 501 .79215686274509
8 .819607843137255 .933333333333333 83 3 494 .792156862745098 .819607843137255 .
933333333333333 83 3 487 .792156862745098 .819607843137255 .933333333333333 83 3
 479 .792156862745098 .819607843137255 .933333333333333 83 3 472 .79215686274509
8 .819607843137255 .933333333333333 83 3 465 .792156862745098 .819607843137255 .
933333333333333 83 3 456 .792156862745098 .819607843137255 .933333333333333 81 1
 447 1216 424 399 0 402 401 441 646 83 3 449 .792156862745098 .819607843137255 .
933333333333333 81 1 402 1299 400 399 447 0 398 407 647 81 1 401 1215 424 17 0 3
98 426 447 648 83 3 646 .792156862745098 .819607843137255 .933333333333333 81 1
 426 1214 424 373 0 407 419 401 649 83 3 648 .792156862745098 .819607843137255 .
933333333333333 81 1 407 1300 400 373 426 0 402 408 650 83 3 649 .79215686274509
8 .819607843137255 .933333333333333 82 1 650 -1610612559 82 1 647 -1048396 83 3
 440 .792156862745098 .819607843137255 .933333333333333 83 3 435 .79215686274509
8 .819607843137255 .933333333333333 82 1 428 -1614544719 83 3 427 .7921568627450
98 .819607843137255 .933333333333333 79 14 423 SWEntUnchanged82 1 412 -162483387
1 82 1 403 -1608646479 19 16 95 0 1 0 9 5 S0 74 4 CI16 index_map_offset0 0 1 dCC
Z20 14 3 0 0 568 2 566 0 0 0 0 0 0 0 0 0 0 0 0 0 0 0 0 0 80 2 12 651 652 8004 0
 0 0 0 3 5 0 0 0 FFTFFFFFFFFFFF2 3 83 1 13 1e3 79 16 652 SDL/TYSA_DENSITY1 0 
